<svg width="119" height="48" viewBox="0 0 119 48" fill="none" xmlns="http://www.w3.org/2000/svg">
<path d="M59.8 31H63.16V25.576C63.16 24.04 62.848 21.376 62.656 19.84H62.752L64 23.92L66.088 29.68H68.2L70.312 23.92L71.608 19.84H71.704C71.512 21.376 71.2 24.04 71.2 25.576V31H74.584V15.376H70.504L68.128 22.168C67.816 23.08 67.576 24.016 67.288 25H67.192C66.904 24.016 66.64 23.08 66.352 22.168L63.88 15.376H59.8V31ZM81.487 31.288C83.095 31.288 84.223 30.544 85.207 29.368H85.303L85.567 31H88.591V19.072H84.871V26.896C84.223 27.784 83.719 28.12 82.879 28.12C81.919 28.12 81.487 27.64 81.487 25.984V19.072H77.767V26.464C77.767 29.44 78.871 31.288 81.487 31.288ZM95.1974 31.288C98.4374 31.288 100.165 29.584 100.165 27.4C100.165 25.432 98.7254 24.352 96.9014 23.776C95.3894 23.296 94.7174 23.008 94.7174 22.384C94.7174 21.856 95.1254 21.52 95.9894 21.52C96.8054 21.52 97.6934 21.76 98.5574 22.384L100.141 20.296C99.1094 19.432 97.6214 18.784 95.8694 18.784C93.0854 18.784 91.2614 20.296 91.2614 22.552C91.2614 24.4 92.7014 25.48 94.4054 26.104C95.6774 26.584 96.6854 26.896 96.6854 27.616C96.6854 28.192 96.2774 28.552 95.2694 28.552C94.3334 28.552 93.2534 28.264 92.1494 27.4L90.5894 29.488C91.7894 30.664 93.6134 31.288 95.1974 31.288ZM102.332 31H106.028V19.072H102.332V31ZM104.18 17.392C105.404 17.392 106.268 16.648 106.268 15.472C106.268 14.32 105.404 13.576 104.18 13.576C102.956 13.576 102.092 14.32 102.092 15.472C102.092 16.648 102.956 17.392 104.18 17.392ZM114.315 31.288C115.587 31.288 117.099 30.928 118.251 29.872L116.811 27.544C116.211 28 115.539 28.288 114.747 28.288C113.283 28.288 112.179 27.016 112.179 25.024C112.179 23.056 113.211 21.76 114.867 21.76C115.395 21.76 115.851 21.928 116.403 22.336L118.131 20.056C117.243 19.288 116.115 18.784 114.651 18.784C111.339 18.784 108.387 21.064 108.387 25.024C108.387 28.984 110.955 31.288 114.315 31.288Z" fill="white"/>
<circle cx="10" cy="10" r="10" fill="#32D74B"/>
<circle cx="34" cy="24" r="10" fill="#0A84FF"/>
<circle cx="10" cy="38" r="10" fill="#FF375F"/>
</svg>
